<svg width="24" height="25" viewBox="0 0 24 25" fill="none" xmlns="http://www.w3.org/2000/svg"><path d="M11.75 22.5002C11.75 22.5002 19.75 18.5002 19.75 12.5002V5.50024L11.75 2.50024L3.75 5.50024V12.5002C3.75 18.5002 11.75 22.5002 11.75 22.5002Z" stroke="#969696" stroke-linecap="round" stroke-linejoin="round"></path><path d="M14.0833 11.5002H9.41667C9.04848 11.5002 8.75 11.7987 8.75 12.1669V14.5002C8.75 14.8684 9.04848 15.1669 9.41667 15.1669H14.0833C14.4515 15.1669 14.75 14.8684 14.75 14.5002V12.1669C14.75 11.7987 14.4515 11.5002 14.0833 11.5002Z" stroke="#969696" stroke-linecap="round" stroke-linejoin="round"></path><path d="M10.0832 11.5002V10.1669C10.0832 9.72488 10.2588 9.30096 10.5713 8.9884C10.8839 8.67584 11.3078 8.50024 11.7499 8.50024C12.1919 8.50024 12.6158 8.67584 12.9284 8.9884C13.2409 9.30096 13.4165 9.72488 13.4165 10.1669V11.5002" stroke="#969696" stroke-linecap="round" stroke-linejoin="round"></path></svg>