<svg width="20" height="20" viewBox="0 0 20 20" fill="none" xmlns="http://www.w3.org/2000/svg"><path d="M15 8.33333C15 7.00725 14.4732 5.73548 13.5355 4.7978C12.5979 3.86012 11.3261 3.33333 10 3.33333C8.67392 3.33333 7.40215 3.86012 6.46447 4.7978C5.52678 5.73548 5 7.00725 5 8.33333C5 14.1667 2.5 15.8333 2.5 15.8333H17.5C17.5 15.8333 15 14.1667 15 8.33333Z" stroke="#969696" stroke-linecap="round" stroke-linejoin="round"></path><path d="M11.4417 17.5C11.2952 17.7526 11.0849 17.9622 10.8319 18.1079C10.5789 18.2537 10.292 18.3304 10 18.3304C9.70803 18.3304 9.42117 18.2537 9.16816 18.1079C8.91515 17.9622 8.70486 17.7526 8.55835 17.5" stroke="#969696" stroke-linecap="round" stroke-linejoin="round"></path></svg>